<svg width="67" height="52" viewBox="0 0 67 52" fill="none" xmlns="http://www.w3.org/2000/svg">
<path fill-rule="evenodd" clip-rule="evenodd" d="M0.763961 39.6087C-1.71886 44.9133 2.15269 51 8.00958 51H41.5773C44.6822 51 47.5067 49.2034 48.8229 46.3913L65.8747 9.95972C66.2655 9.12479 66.468 8.21418 66.468 7.29232V7.29232C66.468 3.81717 63.6509 1 60.1757 1H23.9233C20.8184 1 17.9939 2.79656 16.6777 5.60869L0.763961 39.6087Z" fill="#292929" fill-opacity="0.5"/>
<path d="M38.356 52.008C34.564 52.008 31.204 51.336 28.276 49.992C25.348 48.648 23.044 46.728 21.364 44.232C19.732 41.688 18.916 38.688 18.916 35.232V33.936H28.132V34.944C28.132 37.632 29.068 39.792 30.94 41.424C32.812 43.008 35.284 43.8 38.356 43.8C41.476 43.8 43.876 43.056 45.556 41.568C47.284 40.08 48.148 38.208 48.148 35.952V35.232C48.148 33.696 47.764 32.448 46.996 31.488C46.228 30.528 45.196 29.832 43.9 29.4C42.604 28.92 41.14 28.68 39.508 28.68H29.428V18.6L45.7 9.96V8.808H20.212V0.599997H55.924V12.84L40.732 20.904V22.056H43.396C45.652 22.056 47.836 22.512 49.948 23.424C52.108 24.336 53.884 25.752 55.276 27.672C56.668 29.544 57.364 31.992 57.364 35.016V35.88C57.364 39.144 56.572 42 54.988 44.448C53.404 46.848 51.172 48.72 48.292 50.064C45.46 51.36 42.148 52.008 38.356 52.008Z" fill="#009FE3"/>
</svg>
