<svg width="67" height="52" viewBox="0 0 67 52" fill="none" xmlns="http://www.w3.org/2000/svg">
<path fill-rule="evenodd" clip-rule="evenodd" d="M0.763961 40.6087C-1.71886 45.9133 2.15269 52 8.00958 52H41.5773C44.6822 52 47.5067 50.2034 48.8229 47.3913L65.8747 10.9597C66.2655 10.1248 66.468 9.21418 66.468 8.29232V8.29232C66.468 4.81717 63.6509 2 60.1757 2H23.9233C20.8184 2 17.9939 3.79656 16.6777 6.60869L0.763961 40.6087Z" fill="#292929" fill-opacity="0.5"/>
<path d="M19.492 52V45.952C19.492 42.448 20.068 39.544 21.22 37.24C22.372 34.888 24.028 32.968 26.188 31.48C28.396 29.944 31.084 28.696 34.252 27.736L39.076 26.224C40.852 25.648 42.34 24.952 43.54 24.136C44.74 23.272 45.652 22.24 46.276 21.04C46.948 19.84 47.284 18.472 47.284 16.936V16.648C47.284 14.248 46.468 12.352 44.836 10.96C43.204 9.52 40.972 8.8 38.14 8.8C35.356 8.8 33.1 9.568 31.372 11.104C29.692 12.592 28.852 14.752 28.852 17.584V18.88H19.636V17.728C19.636 14.08 20.452 10.984 22.084 8.44C23.716 5.896 25.924 3.952 28.708 2.608C31.54 1.264 34.684 0.591997 38.14 0.591997C41.596 0.591997 44.716 1.264 47.5 2.608C50.284 3.904 52.468 5.752 54.052 8.152C55.684 10.504 56.5 13.288 56.5 16.504V17.224C56.5 20.44 55.828 23.176 54.484 25.432C53.188 27.64 51.412 29.464 49.156 30.904C46.9 32.296 44.332 33.448 41.452 34.36L36.844 35.8C34.78 36.424 33.172 37.12 32.02 37.888C30.868 38.608 30.052 39.424 29.572 40.336C29.14 41.2 28.924 42.256 28.924 43.504V43.792H56.068V52H19.492Z" fill="#009FE3"/>
</svg>
