<svg width="188" height="40" viewBox="0 0 188 40" fill="none" xmlns="http://www.w3.org/2000/svg">
<rect width="188" height="40" rx="20" fill="#292929"/>
<path fill-rule="evenodd" clip-rule="evenodd" d="M23.3454 18.6666C22.5632 18.6666 22.4 18.8202 22.4 19.5555V20.8889C22.4 21.6243 22.5632 21.7778 23.3454 21.7778H25.2364V27.1111C25.2364 27.8465 25.3996 28 26.1818 28H28.0727C28.855 28 29.0182 27.8465 29.0182 27.1111V21.7778H31.1414C31.7346 21.7778 31.8875 21.6694 32.0505 21.1331L32.4557 19.7998C32.7348 18.8811 32.5628 18.6666 31.5466 18.6666H29.0182V16.4444C29.0182 15.9535 29.4414 15.5556 29.9636 15.5556H32.6546C33.4367 15.5556 33.6 15.4021 33.6 14.6667V12.8889C33.6 12.1535 33.4367 12 32.6546 12H29.9636C27.3528 12 25.2364 13.9898 25.2364 16.4444V18.6666H23.3454Z" stroke="white" stroke-width="1.5" stroke-linejoin="round"/>
<g clip-path="url(#clip0_1_566)">
<path d="M65.6667 20.0001C65.6667 17.0145 65.6667 15.5217 66.5942 14.5942C67.5217 13.6667 69.0144 13.6667 72 13.6667C74.9855 13.6667 76.4783 13.6667 77.4059 14.5942C78.3333 15.5217 78.3333 17.0145 78.3333 20.0001C78.3333 22.9856 78.3333 24.4784 77.4059 25.4059C76.4783 26.3334 74.9855 26.3334 72 26.3334C69.0144 26.3334 67.5217 26.3334 66.5942 25.4059C65.6667 24.4784 65.6667 22.9856 65.6667 20.0001Z" stroke="white" stroke-width="1.5" stroke-linejoin="round"/>
<path d="M75 20C75 21.6569 73.6569 23 72 23C70.3431 23 69 21.6569 69 20C69 18.3431 70.3431 17 72 17C73.6569 17 75 18.3431 75 20Z" stroke="white" stroke-width="1.5"/>
<path d="M75.6719 16.3333H75.6659" stroke="white" stroke-width="2" stroke-linecap="round" stroke-linejoin="round"/>
</g>
<path d="M109.333 16L113.942 18.6113C115.641 19.574 116.359 19.574 118.058 18.6113L122.667 16" stroke="white" stroke-width="1.5" stroke-linejoin="round"/>
<path d="M109.344 20.9837C109.387 23.0274 109.409 24.0492 110.163 24.8062C110.917 25.5631 111.967 25.5895 114.066 25.6422C115.36 25.6747 116.64 25.6747 117.934 25.6422C120.033 25.5895 121.083 25.5631 121.837 24.8062C122.591 24.0492 122.613 23.0274 122.656 20.9837C122.67 20.3265 122.67 19.6733 122.656 19.0162C122.613 16.9725 122.591 15.9506 121.837 15.1937C121.083 14.4367 120.033 14.4104 117.934 14.3576C116.64 14.3251 115.36 14.3251 114.066 14.3576C111.967 14.4104 110.917 14.4367 110.163 15.1937C109.409 15.9506 109.387 16.9725 109.344 19.0162C109.33 19.6733 109.33 20.3265 109.344 20.9837Z" stroke="white" stroke-width="1.5" stroke-linejoin="round"/>
<path d="M158.106 15.8082L157.837 15.2042C157.662 14.8093 157.574 14.6118 157.443 14.4607C157.278 14.2713 157.064 14.132 156.824 14.0586C156.632 14 156.416 14 155.984 14C155.352 14 155.036 14 154.77 14.1215C154.458 14.2647 154.176 14.5755 154.063 14.9004C153.968 15.1762 153.995 15.4596 154.05 16.0265C154.632 22.0601 157.94 25.3681 163.974 25.9503C164.54 26.005 164.824 26.0323 165.1 25.9369C165.425 25.8244 165.735 25.5421 165.879 25.2295C166 24.9641 166 24.6481 166 24.0159C166 23.5837 166 23.3676 165.941 23.1762C165.868 22.9363 165.729 22.7219 165.539 22.5575C165.388 22.4262 165.191 22.3385 164.796 22.1629L164.192 21.8945C163.764 21.7044 163.55 21.6094 163.333 21.5887C163.125 21.5689 162.915 21.5981 162.721 21.6739C162.517 21.7531 162.338 21.9029 161.978 22.2025C161.62 22.5008 161.441 22.6499 161.223 22.7298C161.029 22.8006 160.772 22.8269 160.568 22.7967C160.338 22.7628 160.162 22.6686 159.809 22.4801C158.712 21.8937 158.106 21.2885 157.52 20.1911C157.331 19.8385 157.237 19.6621 157.203 19.4318C157.173 19.2276 157.199 18.9713 157.27 18.7775C157.35 18.5588 157.499 18.3799 157.797 18.022C158.097 17.6624 158.247 17.4827 158.326 17.2793C158.402 17.0846 158.431 16.8749 158.411 16.667C158.391 16.4497 158.296 16.2358 158.106 15.8082Z" stroke="white" stroke-width="1.5" stroke-linecap="round"/>
<defs>
<clipPath id="clip0_1_566">
<rect width="16" height="16" fill="white" transform="translate(64 12)"/>
</clipPath>
</defs>
</svg>
